<svg version="1.1" viewBox="0.0 0.0 498.0 82.0" fill="none" stroke="none" stroke-linecap="square" stroke-miterlimit="10" width="498" height="82" xmlns:xlink="http://www.w3.org/1999/xlink" xmlns="http://www.w3.org/2000/svg"><path fill="#ffffff" fill-opacity="0.0" d="M0 0L498.0 0L498.0 82.0L0 82.0L0 0Z" fill-rule="nonzero"/><clipPath id="id_0"><path d="M4.1 4.1L493.9 4.1L493.9 56.9L4.1 56.9L4.1 4.1Z" clip-rule="nonzero"/></clipPath><path stroke="#000000" stroke-width="0.0" stroke-linecap="butt" stroke-opacity="0.0" clip-path="url(#id_0)" d="M117.0 57.0L44.0 57.0L44.0 49.0C44.0 47.89543 44.89543 47.0 46.0 47.0L115.0 47.0C116.10457 47.0 117.0 47.89543 117.0 49.0Z" fill-rule="nonzero"/><path fill="#111c79" clip-path="url(#id_0)" d="M117.0 57.0L44.0 57.0L44.0 49.0C44.0 47.89543 44.89543 47.0 46.0 47.0L115.0 47.0C116.10457 47.0 117.0 47.89543 117.0 49.0Z" fill-rule="nonzero"/><path stroke="#000000" stroke-width="0.0" stroke-linecap="butt" stroke-opacity="0.0" clip-path="url(#id_0)" d="M230.0 57.0L157.0 57.0L157.0 6.0C157.0 4.8954306 157.89543 4.0 159.0 4.0L228.0 4.0C229.10457 4.0 230.0 4.8954306 230.0 6.0Z" fill-rule="nonzero"/><path fill="#111c79" clip-path="url(#id_0)" d="M230.0 57.0L157.0 57.0L157.0 6.0C157.0 4.8954306 157.89543 4.0 159.0 4.0L228.0 4.0C229.10457 4.0 230.0 4.8954306 230.0 6.0Z" fill-rule="nonzero"/><path stroke="#000000" stroke-width="0.0" stroke-linecap="butt" stroke-opacity="0.0" clip-path="url(#id_0)" d="M342.0 57.0L269.0 57.0L269.0 16.0C269.0 14.895431 269.89542 14.0 271.0 14.0L340.0 14.0C341.10458 14.0 342.0 14.895431 342.0 16.0Z" fill-rule="nonzero"/><path fill="#111c79" clip-path="url(#id_0)" d="M342.0 57.0L269.0 57.0L269.0 16.0C269.0 14.895431 269.89542 14.0 271.0 14.0L340.0 14.0C341.10458 14.0 342.0 14.895431 342.0 16.0Z" fill-rule="nonzero"/><path stroke="#000000" stroke-width="0.0" stroke-linecap="butt" stroke-opacity="0.0" clip-path="url(#id_0)" d="M455.0 57.0L382.0 57.0L382.0 24.0C382.0 22.89543 382.89542 22.0 384.0 22.0L453.0 22.0C454.10458 22.0 455.0 22.89543 455.0 24.0Z" fill-rule="nonzero"/><path fill="#111c79" clip-path="url(#id_0)" d="M455.0 57.0L382.0 57.0L382.0 24.0C382.0 22.89543 382.89542 22.0 384.0 22.0L453.0 22.0C454.10458 22.0 455.0 22.89543 455.0 24.0Z" fill-rule="nonzero"/><path stroke="#ffffff" stroke-width="3.0" stroke-linejoin="round" stroke-linecap="round" d="M79.5 22.378689L70.1875 22.378689L70.1875 21.081814L75.109375 15.613064Q76.203125 14.363064 76.609375 13.597439Q77.03125 12.816189 77.03125 11.988064Q77.03125 10.878689 76.359375 10.159939Q75.6875 9.441189 74.5625 9.441189Q73.203125 9.441189 72.453125 10.222439Q71.71875 10.988064 71.71875 12.347439L69.90625 12.347439Q69.90625 10.378689 71.171875 9.175564Q72.4375 7.9568133 74.5625 7.9568133Q76.546875 7.9568133 77.6875 9.003689Q78.84375 10.050564 78.84375 11.769314Q78.84375 13.878689 76.171875 16.769314L72.359375 20.909939L79.5 20.909939L79.5 22.378689ZM90.5 22.378689L81.1875 22.378689L81.1875 21.081814L86.109375 15.613064Q87.203125 14.363064 87.609375 13.597439Q88.03125 12.816189 88.03125 11.988064Q88.03125 10.878689 87.359375 10.159939Q86.6875 9.441189 85.5625 9.441189Q84.203125 9.441189 83.453125 10.222439Q82.71875 10.988064 82.71875 12.347439L80.90625 12.347439Q80.90625 10.378689 82.171875 9.175564Q83.4375 7.9568133 85.5625 7.9568133Q87.546875 7.9568133 88.6875 9.003689Q89.84375 10.050564 89.84375 11.769314Q89.84375 13.878689 87.171875 16.769314L83.359375 20.909939L90.5 20.909939L90.5 22.378689Z" fill-rule="nonzero"/><path fill="#111c79" d="M79.5 22.378689L70.1875 22.378689L70.1875 21.081814L75.109375 15.613064Q76.203125 14.363064 76.609375 13.597439Q77.03125 12.816189 77.03125 11.988064Q77.03125 10.878689 76.359375 10.159939Q75.6875 9.441189 74.5625 9.441189Q73.203125 9.441189 72.453125 10.222439Q71.71875 10.988064 71.71875 12.347439L69.90625 12.347439Q69.90625 10.378689 71.171875 9.175564Q72.4375 7.956814 74.5625 7.956814Q76.546875 7.956814 77.6875 9.003689Q78.84375 10.050564 78.84375 11.769314Q78.84375 13.878689 76.171875 16.769314L72.359375 20.909939L79.5 20.909939L79.5 22.378689ZM90.5 22.378689L81.1875 22.378689L81.1875 21.081814L86.109375 15.613064Q87.203125 14.363064 87.609375 13.597439Q88.03125 12.816189 88.03125 11.988064Q88.03125 10.878689 87.359375 10.159939Q86.6875 9.441189 85.5625 9.441189Q84.203125 9.441189 83.453125 10.222439Q82.71875 10.988064 82.71875 12.347439L80.90625 12.347439Q80.90625 10.378689 82.171875 9.175564Q83.4375 7.956814 85.5625 7.956814Q87.546875 7.956814 88.6875 9.003689Q89.84375 10.050564 89.84375 11.769314Q89.84375 13.878689 87.171875 16.769314L83.359375 20.909939L90.5 20.909939L90.5 22.378689Z" fill-rule="nonzero"/><path stroke="#111c79" stroke-width="3.0" stroke-linejoin="round" stroke-linecap="round" d="M183.625 31.1L181.79688 31.1L181.79688 19.053125L178.15625 20.396875L178.15625 18.75625L183.34375 16.81875L183.625 16.81875L183.625 31.1ZM198.0 31.1L188.6875 31.1L188.6875 29.803125L193.60938 24.334375Q194.70312 23.084375 195.10938 22.31875Q195.53125 21.5375 195.53125 20.709375Q195.53125 19.6 194.85938 18.88125Q194.1875 18.1625 193.0625 18.1625Q191.70312 18.1625 190.95312 18.94375Q190.21875 19.709375 190.21875 21.06875L188.40625 21.06875Q188.40625 19.1 189.67188 17.896875Q190.9375 16.678125 193.0625 16.678125Q195.04688 16.678125 196.1875 17.725Q197.34375 18.771875 197.34375 20.490625Q197.34375 22.6 194.67188 25.490625L190.85938 29.63125L198.0 29.63125L198.0 31.1ZM209.0 31.1L199.6875 31.1L199.6875 29.803125L204.60938 24.334375Q205.70312 23.084375 206.10938 22.31875Q206.53125 21.5375 206.53125 20.709375Q206.53125 19.6 205.85938 18.88125Q205.1875 18.1625 204.0625 18.1625Q202.70312 18.1625 201.95312 18.94375Q201.21875 19.709375 201.21875 21.06875L199.40625 21.06875Q199.40625 19.1 200.67188 17.896875Q201.9375 16.678125 204.0625 16.678125Q206.04688 16.678125 207.1875 17.725Q208.34375 18.771875 208.34375 20.490625Q208.34375 22.6 205.67188 25.490625L201.85938 29.63125L209.0 29.63125L209.0 31.1Z" fill-rule="nonzero"/><path fill="#ffffff" d="M183.625 31.1L181.79688 31.1L181.79688 19.053125L178.15625 20.396875L178.15625 18.75625L183.34375 16.81875L183.625 16.81875L183.625 31.1ZM198.0 31.1L188.6875 31.1L188.6875 29.803125L193.60938 24.334375Q194.70312 23.084375 195.10938 22.31875Q195.53125 21.5375 195.53125 20.709375Q195.53125 19.6 194.85938 18.88125Q194.1875 18.1625 193.0625 18.1625Q191.70312 18.1625 190.95312 18.94375Q190.21875 19.709375 190.21875 21.06875L188.40625 21.06875Q188.40625 19.1 189.67188 17.896875Q190.9375 16.678125 193.0625 16.678125Q195.04688 16.678125 196.1875 17.725Q197.34375 18.771875 197.34375 20.490625Q197.34375 22.6 194.67188 25.490625L190.85938 29.63125L198.0 29.63125L198.0 31.1ZM209.0 31.1L199.6875 31.1L199.6875 29.803125L204.60938 24.334375Q205.70312 23.084375 206.10938 22.31875Q206.53125 21.5375 206.53125 20.709375Q206.53125 19.6 205.85938 18.88125Q205.1875 18.1625 204.0625 18.1625Q202.70312 18.1625 201.95312 18.94375Q201.21875 19.709375 201.21875 21.06875L199.40625 21.06875Q199.40625 19.1 200.67188 17.896875Q201.9375 16.678125 204.0625 16.678125Q206.04688 16.678125 207.1875 17.725Q208.34375 18.771875 208.34375 20.490625Q208.34375 22.6 205.67188 25.490625L201.85938 29.63125L209.0 29.63125L209.0 31.1Z" fill-rule="nonzero"/><path stroke="#111c79" stroke-width="3.0" stroke-linejoin="round" stroke-linecap="round" d="M295.625 40.62131L293.79688 40.62131L293.79688 28.574436L290.15625 29.918186L290.15625 28.277561L295.34375 26.340061L295.625 26.340061L295.625 40.62131ZM309.59375 34.55881Q309.59375 37.730686 308.51562 39.27756Q307.4375 40.824436 305.125 40.824436Q302.84375 40.824436 301.75 39.30881Q300.65625 37.793186 300.625 34.793186L300.625 32.386936Q300.625 29.246311 301.70312 27.730686Q302.79688 26.199436 305.10938 26.199436Q307.40625 26.199436 308.48438 27.683811Q309.5625 29.152561 309.59375 32.21506L309.59375 34.55881ZM307.79688 32.09006Q307.79688 29.793186 307.14062 28.746311Q306.5 27.683811 305.10938 27.683811Q303.71875 27.683811 303.07812 28.730686Q302.45312 29.777561 302.4375 31.949436L302.4375 34.84006Q302.4375 37.136936 303.09375 38.24631Q303.76562 39.34006 305.125 39.34006Q306.46875 39.34006 307.10938 38.30881Q307.76562 37.27756 307.79688 35.043186L307.79688 32.09006ZM320.59375 34.55881Q320.59375 37.730686 319.51562 39.27756Q318.4375 40.824436 316.125 40.824436Q313.84375 40.824436 312.75 39.30881Q311.65625 37.793186 311.625 34.793186L311.625 32.386936Q311.625 29.246311 312.70312 27.730686Q313.79688 26.199436 316.10938 26.199436Q318.40625 26.199436 319.48438 27.683811Q320.5625 29.152561 320.59375 32.21506L320.59375 34.55881ZM318.79688 32.09006Q318.79688 29.793186 318.14062 28.746311Q317.5 27.683811 316.10938 27.683811Q314.71875 27.683811 314.07812 28.730686Q313.45312 29.777561 313.4375 31.949436L313.4375 34.84006Q313.4375 37.136936 314.09375 38.24631Q314.76562 39.34006 316.125 39.34006Q317.46875 39.34006 318.10938 38.30881Q318.76562 37.27756 318.79688 35.043186L318.79688 32.09006Z" fill-rule="nonzero"/><path fill="#ffffff" d="M295.625 40.62131L293.79688 40.62131L293.79688 28.574436L290.15625 29.918186L290.15625 28.277561L295.34375 26.340061L295.625 26.340061L295.625 40.62131ZM309.59375 34.55881Q309.59375 37.730686 308.51562 39.27756Q307.4375 40.824436 305.125 40.824436Q302.84375 40.824436 301.75 39.30881Q300.65625 37.793186 300.625 34.793186L300.625 32.386936Q300.625 29.246311 301.70312 27.730686Q302.79688 26.199436 305.10938 26.199436Q307.40625 26.199436 308.48438 27.683811Q309.5625 29.152561 309.59375 32.21506L309.59375 34.55881ZM307.79688 32.09006Q307.79688 29.793186 307.14062 28.746311Q306.5 27.683811 305.10938 27.683811Q303.71875 27.683811 303.07812 28.730686Q302.45312 29.777561 302.4375 31.949436L302.4375 34.84006Q302.4375 37.136936 303.09375 38.24631Q303.76562 39.34006 305.125 39.34006Q306.46875 39.34006 307.10938 38.30881Q307.76562 37.27756 307.79688 35.043186L307.79688 32.09006ZM320.59375 34.55881Q320.59375 37.730686 319.51562 39.27756Q318.4375 40.824436 316.125 40.824436Q313.84375 40.824436 312.75 39.30881Q311.65625 37.793186 311.625 34.793186L311.625 32.386936Q311.625 29.246311 312.70312 27.730686Q313.79688 26.199436 316.10938 26.199436Q318.40625 26.199436 319.48438 27.683811Q320.5625 29.152561 320.59375 32.21506L320.59375 34.55881ZM318.79688 32.09006Q318.79688 29.793186 318.14062 28.746311Q317.5 27.683811 316.10938 27.683811Q314.71875 27.683811 314.07812 28.730686Q313.45312 29.777561 313.4375 31.949436L313.4375 34.84006Q313.4375 37.136936 314.09375 38.24631Q314.76562 39.34006 316.125 39.34006Q317.46875 39.34006 318.10938 38.30881Q318.76562 37.27756 318.79688 35.043186L318.79688 32.09006Z" fill-rule="nonzero"/><path stroke="#111c79" stroke-width="3.0" stroke-linejoin="round" stroke-linecap="round" d="M416.8125 36.0729Q416.8125 37.151024 416.25 37.97915Q415.6875 38.807274 414.71875 39.276024Q415.84375 39.744774 416.48438 40.66665Q417.14062 41.588524 417.14062 42.744774Q417.14062 44.588524 415.89062 45.6979Q414.64062 46.79165 412.60938 46.79165Q410.5625 46.79165 409.32812 45.6979Q408.09375 44.588524 408.09375 42.744774Q408.09375 41.60415 408.71875 40.682274Q409.35938 39.744774 410.46875 39.2604Q409.51562 38.79165 408.96875 37.963524Q408.42188 37.1354 408.42188 36.0729Q408.42188 34.276024 409.57812 33.22915Q410.73438 32.16665 412.60938 32.16665Q414.48438 32.16665 415.64062 33.22915Q416.8125 34.276024 416.8125 36.0729ZM415.32812 42.713524Q415.32812 41.526024 414.5625 40.776024Q413.8125 40.0104 412.59375 40.0104Q411.375 40.0104 410.64062 40.7604Q409.90625 41.494774 409.90625 42.713524Q409.90625 43.91665 410.625 44.619774Q411.34375 45.307274 412.60938 45.307274Q413.89062 45.307274 414.60938 44.619774Q415.32812 43.91665 415.32812 42.713524ZM412.60938 33.651024Q411.54688 33.651024 410.89062 34.3229Q410.23438 34.97915 410.23438 36.10415Q410.23438 37.1979 410.875 37.869774Q411.53125 38.526024 412.60938 38.526024Q413.70312 38.526024 414.34375 37.869774Q415.0 37.1979 415.0 36.119774Q415.0 35.026024 414.32812 34.338524Q413.65625 33.651024 412.60938 33.651024ZM428.09375 40.526024Q428.09375 43.6979 427.01562 45.244774Q425.9375 46.79165 423.625 46.79165Q421.34375 46.79165 420.25 45.276024Q419.15625 43.7604 419.125 40.7604L419.125 38.35415Q419.125 35.213524 420.20312 33.6979Q421.29688 32.16665 423.60938 32.16665Q425.90625 32.16665 426.98438 33.651024Q428.0625 35.119774 428.09375 38.182274L428.09375 40.526024ZM426.29688 38.057274Q426.29688 35.7604 425.64062 34.713524Q425.0 33.651024 423.60938 33.651024Q422.21875 33.651024 421.57812 34.6979Q420.95312 35.744774 420.9375 37.91665L420.9375 40.807274Q420.9375 43.10415 421.59375 44.213524Q422.26562 45.307274 423.625 45.307274Q424.96875 45.307274 425.60938 44.276024Q426.26562 43.244774 426.29688 41.0104L426.29688 38.057274Z" fill-rule="nonzero"/><path fill="#ffffff" d="M416.8125 36.0729Q416.8125 37.151024 416.25 37.97915Q415.6875 38.807274 414.71875 39.276024Q415.84375 39.744774 416.48438 40.66665Q417.14062 41.588524 417.14062 42.744774Q417.14062 44.588524 415.89062 45.6979Q414.64062 46.79165 412.60938 46.79165Q410.5625 46.79165 409.32812 45.6979Q408.09375 44.588524 408.09375 42.744774Q408.09375 41.60415 408.71875 40.682274Q409.35938 39.744774 410.46875 39.2604Q409.51562 38.79165 408.96875 37.963524Q408.42188 37.1354 408.42188 36.0729Q408.42188 34.276024 409.57812 33.22915Q410.73438 32.16665 412.60938 32.16665Q414.48438 32.16665 415.64062 33.22915Q416.8125 34.276024 416.8125 36.0729ZM415.32812 42.713524Q415.32812 41.526024 414.5625 40.776024Q413.8125 40.0104 412.59375 40.0104Q411.375 40.0104 410.64062 40.7604Q409.90625 41.494774 409.90625 42.713524Q409.90625 43.91665 410.625 44.619774Q411.34375 45.307274 412.60938 45.307274Q413.89062 45.307274 414.60938 44.619774Q415.32812 43.91665 415.32812 42.713524ZM412.60938 33.651024Q411.54688 33.651024 410.89062 34.3229Q410.23438 34.97915 410.23438 36.10415Q410.23438 37.1979 410.875 37.869774Q411.53125 38.526024 412.60938 38.526024Q413.70312 38.526024 414.34375 37.869774Q415.0 37.1979 415.0 36.119774Q415.0 35.026024 414.32812 34.338524Q413.65625 33.651024 412.60938 33.651024ZM428.09375 40.526024Q428.09375 43.6979 427.01562 45.244774Q425.9375 46.79165 423.625 46.79165Q421.34375 46.79165 420.25 45.276024Q419.15625 43.7604 419.125 40.7604L419.125 38.35415Q419.125 35.213524 420.20312 33.6979Q421.29688 32.16665 423.60938 32.16665Q425.90625 32.16665 426.98438 33.651024Q428.0625 35.119774 428.09375 38.182274L428.09375 40.526024ZM426.29688 38.057274Q426.29688 35.7604 425.64062 34.713524Q425.0 33.651024 423.60938 33.651024Q422.21875 33.651024 421.57812 34.6979Q420.95312 35.744774 420.9375 37.91665L420.9375 40.807274Q420.9375 43.10415 421.59375 44.213524Q422.26562 45.307274 423.625 45.307274Q424.96875 45.307274 425.60938 44.276024Q426.26562 43.244774 426.29688 41.0104L426.29688 38.057274Z" fill-rule="nonzero"/><path fill="#000000" d="M38.103447 71.10313Q36.665947 70.68125 35.994072 70.07188Q35.337822 69.4625 35.337822 68.57188Q35.337822 67.57188 36.134697 66.91563Q36.947197 66.24375 38.244072 66.24375Q39.119072 66.24375 39.806572 66.5875Q40.494072 66.93125 40.869072 67.525Q41.259697 68.11875 41.259697 68.8375L40.119072 68.8375Q40.119072 68.05625 39.619072 67.61875Q39.134697 67.18125 38.244072 67.18125Q37.415947 67.18125 36.947197 67.55625Q36.478447 67.91563 36.478447 68.55625Q36.478447 69.0875 36.915947 69.44688Q37.369072 69.80625 38.431572 70.10313Q39.494072 70.4 40.087822 70.75938Q40.697197 71.11875 40.978447 71.60313Q41.275322 72.0875 41.275322 72.72813Q41.275322 73.775 40.462822 74.4Q39.650322 75.025 38.306572 75.025Q37.415947 75.025 36.650322 74.68125Q35.900322 74.3375 35.478447 73.75938Q35.072197 73.16563 35.072197 72.43125L36.197197 72.43125Q36.197197 73.19688 36.775322 73.65Q37.353447 74.10313 38.306572 74.10313Q39.197197 74.10313 39.665947 73.74375Q40.134697 73.36875 40.134697 72.74375Q40.134697 72.11875 39.697197 71.775Q39.259697 71.43125 38.103447 71.10313ZM43.900322 67.025L43.900322 68.55625L45.072197 68.55625L45.072197 69.4L43.900322 69.4L43.900322 73.32188Q43.900322 73.7125 44.056572 73.9Q44.212822 74.0875 44.587822 74.0875Q44.775322 74.0875 45.103447 74.025L45.103447 74.9Q44.681572 75.025 44.275322 75.025Q43.556572 75.025 43.181572 74.5875Q42.806572 74.13438 42.806572 73.32188L42.806572 69.4L41.650322 69.4L41.650322 68.55625L42.806572 68.55625L42.806572 67.025L43.900322 67.025ZM46.134697 71.66563Q46.134697 70.74375 46.494072 69.99375Q46.869072 69.24375 47.525322 68.85313Q48.181572 68.44688 49.009697 68.44688Q50.306572 68.44688 51.103447 69.3375Q51.915947 70.22813 51.915947 71.72813L51.915947 71.80625Q51.915947 72.72813 51.556572 73.4625Q51.197197 74.19688 50.540947 74.61875Q49.884697 75.025 49.025322 75.025Q47.744072 75.025 46.931572 74.13438Q46.134697 73.22813 46.134697 71.74375L46.134697 71.66563ZM47.228447 71.80625Q47.228447 72.85313 47.712822 73.49375Q48.212822 74.13438 49.025322 74.13438Q49.853447 74.13438 50.337822 73.49375Q50.822197 72.8375 50.822197 71.66563Q50.822197 70.63438 50.322197 69.99375Q49.837822 69.3375 49.009697 69.3375Q48.212822 69.3375 47.712822 69.97813Q47.228447 70.60313 47.228447 71.80625ZM47.197197 66.86875Q47.197197 66.60313 47.353447 66.43125Q47.525322 66.24375 47.837822 66.24375Q48.150322 66.24375 48.306572 66.43125Q48.478447 66.60313 48.478447 66.86875Q48.478447 67.13438 48.306572 67.30625Q48.150322 67.47813 47.837822 67.47813Q47.525322 67.47813 47.353447 67.30625Q47.197197 67.13438 47.197197 66.86875ZM49.712822 66.88438Q49.712822 66.61875 49.869072 66.43125Q50.040947 66.24375 50.353447 66.24375Q50.665947 66.24375 50.822197 66.43125Q50.994072 66.61875 50.994072 66.88438Q50.994072 67.13438 50.822197 67.32188Q50.665947 67.49375 50.353447 67.49375Q50.040947 67.49375 49.869072 67.32188Q49.712822 67.13438 49.712822 66.88438ZM53.165947 71.68125Q53.165947 70.2125 53.853447 69.3375Q54.540947 68.44688 55.665947 68.44688Q56.775322 68.44688 57.431572 69.19688L57.431572 65.9L58.509697 65.9L58.509697 74.9L57.509697 74.9L57.462822 74.2125Q56.806572 75.025 55.650322 75.025Q54.556572 75.025 53.853447 74.11875Q53.165947 73.2125 53.165947 71.75938L53.165947 71.68125ZM54.244072 71.80625Q54.244072 72.88438 54.681572 73.49375Q55.134697 74.10313 55.915947 74.10313Q56.947197 74.10313 57.431572 73.16563L57.431572 70.25938Q56.947197 69.36875 55.931572 69.36875Q55.134697 69.36875 54.681572 69.97813Q54.244072 70.5875 54.244072 71.80625ZM61.447197 68.55625L61.478447 69.25938Q62.165947 68.44688 63.353447 68.44688Q64.68157 68.44688 65.16595 69.4625Q65.47845 69.00938 65.97845 68.72813Q66.49407 68.44688 67.18157 68.44688Q69.27532 68.44688 69.30657 70.65L69.30657 74.9L68.22845 74.9L68.22845 70.7125Q68.22845 70.04063 67.91595 69.7125Q67.60345 69.36875 66.86907 69.36875Q66.2597 69.36875 65.85345 69.72813Q65.46282 70.0875 65.40032 70.69688L65.40032 74.9L64.3222 74.9L64.3222 70.74375Q64.3222 69.36875 62.962822 69.36875Q61.900322 69.36875 61.509697 70.275L61.509697 74.9L60.415947 74.9L60.415947 68.55625L61.447197 68.55625ZM74.05657 75.025Q72.7597 75.025 71.9472 74.18125Q71.15032 73.32188 71.15032 71.9L71.15032 71.7125Q71.15032 70.75938 71.5097 70.025Q71.86907 69.275 72.5097 68.86875Q73.16595 68.44688 73.91595 68.44688Q75.15032 68.44688 75.83782 69.25938Q76.52532 70.07188 76.52532 71.5875L76.52532 72.04063L72.22845 72.04063Q72.2597 72.97813 72.77532 73.55625Q73.30657 74.13438 74.11907 74.13438Q74.68157 74.13438 75.0722 73.9Q75.47845 73.66563 75.79095 73.275L76.4472 73.79063Q75.65032 75.025 74.05657 75.025ZM73.91595 69.3375Q73.2597 69.3375 72.80657 69.82188Q72.36907 70.29063 72.27532 71.15L75.4472 71.15L75.4472 71.07188Q75.40032 70.24375 74.99407 69.79063Q74.60345 69.3375 73.91595 69.3375ZM77.16595 71.68125Q77.16595 70.2125 77.85345 69.3375Q78.54095 68.44688 79.66595 68.44688Q80.77532 68.44688 81.43157 69.19688L81.43157 65.9L82.5097 65.9L82.5097 74.9L81.5097 74.9L81.46282 74.2125Q80.80657 75.025 79.65032 75.025Q78.55657 75.025 77.85345 74.11875Q77.16595 73.2125 77.16595 71.75938L77.16595 71.68125ZM78.24407 71.80625Q78.24407 72.88438 78.68157 73.49375Q79.1347 74.10313 79.91595 74.10313Q80.9472 74.10313 81.43157 73.16563L81.43157 70.25938Q80.9472 69.36875 79.93157 69.36875Q79.1347 69.36875 78.68157 69.97813Q78.24407 70.5875 78.24407 71.80625ZM85.60345 74.9L84.52532 74.9L84.52532 65.9L85.60345 65.9L85.60345 74.9ZM90.05657 75.025Q88.7597 75.025 87.9472 74.18125Q87.15032 73.32188 87.15032 71.9L87.15032 71.7125Q87.15032 70.75938 87.5097 70.025Q87.86907 69.275 88.5097 68.86875Q89.16595 68.44688 89.91595 68.44688Q91.15032 68.44688 91.83782 69.25938Q92.52532 70.07188 92.52532 71.5875L92.52532 72.04063L88.22845 72.04063Q88.2597 72.97813 88.77532 73.55625Q89.30657 74.13438 90.11907 74.13438Q90.68157 74.13438 91.0722 73.9Q91.47845 73.66563 91.79095 73.275L92.4472 73.79063Q91.65032 75.025 90.05657 75.025ZM89.91595 69.3375Q89.2597 69.3375 88.80657 69.82188Q88.36907 70.29063 88.27532 71.15L91.4472 71.15L91.4472 71.07188Q91.40032 70.24375 90.99407 69.79063Q90.60345 69.3375 89.91595 69.3375ZM94.4472 68.55625L94.47845 69.25938Q95.16595 68.44688 96.35345 68.44688Q97.68157 68.44688 98.16595 69.4625Q98.47845 69.00938 98.97845 68.72813Q99.49407 68.44688 100.18157 68.44688Q102.27532 68.44688 102.30657 70.65L102.30657 74.9L101.22845 74.9L101.22845 70.7125Q101.22845 70.04063 100.91595 69.7125Q100.60345 69.36875 99.86907 69.36875Q99.2597 69.36875 98.85345 69.72813Q98.46282 70.0875 98.40032 70.69688L98.40032 74.9L97.3222 74.9L97.3222 70.74375Q97.3222 69.36875 95.96282 69.36875Q94.90032 69.36875 94.5097 70.275L94.5097 74.9L93.41595 74.9L93.41595 68.55625L94.4472 68.55625ZM105.4472 68.55625L105.47845 69.25938Q106.16595 68.44688 107.35345 68.44688Q108.68157 68.44688 109.16595 69.4625Q109.47845 69.00938 109.97845 68.72813Q110.49407 68.44688 111.18157 68.44688Q113.27532 68.44688 113.30657 70.65L113.30657 74.9L112.22845 74.9L112.22845 70.7125Q112.22845 70.04063 111.91595 69.7125Q111.60345 69.36875 110.86907 69.36875Q110.2597 69.36875 109.85345 69.72813Q109.46282 70.0875 109.40032 70.69688L109.40032 74.9L108.3222 74.9L108.3222 70.74375Q108.3222 69.36875 106.96282 69.36875Q105.90032 69.36875 105.5097 70.275L105.5097 74.9L104.41595 74.9L104.41595 68.55625L105.4472 68.55625ZM119.33782 74.9Q119.24407 74.7125 119.18157 74.22813Q118.43157 75.025 117.3847 75.025Q116.4472 75.025 115.83782 74.49375Q115.24407 73.9625 115.24407 73.13438Q115.24407 72.15 115.99407 71.60313Q116.74407 71.05625 118.11907 71.05625L119.16595 71.05625L119.16595 70.55625Q119.16595 69.99375 118.8222 69.66563Q118.49407 69.32188 117.8222 69.32188Q117.24407 69.32188 116.85345 69.61875Q116.46282 69.9 116.46282 70.32188L115.36907 70.32188Q115.36907 69.8375 115.6972 69.4Q116.04095 68.9625 116.61907 68.7125Q117.1972 68.44688 117.8847 68.44688Q118.99407 68.44688 119.60345 68.99375Q120.22845 69.54063 120.2597 70.49375L120.2597 73.41563Q120.2597 74.29063 120.47845 74.80625L120.47845 74.9L119.33782 74.9ZM117.54095 74.07188Q118.05657 74.07188 118.5097 73.80625Q118.96282 73.54063 119.16595 73.11875L119.16595 71.82188L118.3222 71.82188Q116.3222 71.82188 116.3222 72.99375Q116.3222 73.49375 116.66595 73.79063Q117.0097 74.07188 117.54095 74.07188ZM125.49407 69.525Q125.24407 69.49375 124.96282 69.49375Q123.8847 69.49375 123.5097 70.4L123.5097 74.9L122.43157 74.9L122.43157 68.55625L123.47845 68.55625L123.49407 69.29063Q124.02532 68.44688 125.0097 68.44688Q125.3222 68.44688 125.49407 68.525L125.49407 69.525Z" fill-rule="nonzero"/><path fill="#000000" d="M155.90428 71.13438L152.31053 71.13438L152.31053 74.9L151.18553 74.9L151.18553 66.36875L156.4824 66.36875L156.4824 67.29063L152.31053 67.29063L152.31053 70.2125L155.90428 70.2125L155.90428 71.13438ZM161.09178 69.525Q160.84178 69.49375 160.56053 69.49375Q159.4824 69.49375 159.1074 70.4L159.1074 74.9L158.02928 74.9L158.02928 68.55625L159.07616 68.55625L159.09178 69.29063Q159.62303 68.44688 160.6074 68.44688Q160.9199 68.44688 161.09178 68.525L161.09178 69.525ZM163.20116 74.9L162.12303 74.9L162.12303 68.55625L163.20116 68.55625L163.20116 74.9ZM162.02928 66.88438Q162.02928 66.61875 162.18553 66.43125Q162.3574 66.24375 162.6699 66.24375Q162.9824 66.24375 163.13866 66.43125Q163.31053 66.61875 163.31053 66.88438Q163.31053 67.13438 163.13866 67.32188Q162.9824 67.49375 162.6699 67.49375Q162.3574 67.49375 162.18553 67.32188Q162.02928 67.13438 162.02928 66.88438ZM166.20116 74.9L165.12303 74.9L165.12303 68.55625L166.20116 68.55625L166.20116 74.9ZM165.02928 66.88438Q165.02928 66.61875 165.18553 66.43125Q165.3574 66.24375 165.6699 66.24375Q165.9824 66.24375 166.13866 66.43125Q166.31053 66.61875 166.31053 66.88438Q166.31053 67.13438 166.13866 67.32188Q165.9824 67.49375 165.6699 67.49375Q165.3574 67.49375 165.18553 67.32188Q165.02928 67.13438 165.02928 66.88438ZM167.76366 71.68125Q167.76366 70.2125 168.45116 69.3375Q169.13866 68.44688 170.26366 68.44688Q171.37303 68.44688 172.02928 69.19688L172.02928 65.9L173.1074 65.9L173.1074 74.9L172.1074 74.9L172.06053 74.2125Q171.40428 75.025 170.24803 75.025Q169.15428 75.025 168.45116 74.11875Q167.76366 73.2125 167.76366 71.75938L167.76366 71.68125ZM168.84178 71.80625Q168.84178 72.88438 169.27928 73.49375Q169.7324 74.10313 170.51366 74.10313Q171.5449 74.10313 172.02928 73.16563L172.02928 70.25938Q171.5449 69.36875 170.52928 69.36875Q169.7324 69.36875 169.27928 69.97813Q168.84178 70.5875 168.84178 71.80625ZM178.09178 69.525Q177.84178 69.49375 177.56053 69.49375Q176.4824 69.49375 176.1074 70.4L176.1074 74.9L175.02928 74.9L175.02928 68.55625L176.07616 68.55625L176.09178 69.29063Q176.62303 68.44688 177.6074 68.44688Q177.9199 68.44688 178.09178 68.525L178.09178 69.525ZM178.7324 71.66563Q178.7324 70.74375 179.09178 69.99375Q179.46678 69.24375 180.12303 68.85313Q180.77928 68.44688 181.6074 68.44688Q182.90428 68.44688 183.70116 69.3375Q184.51366 70.22813 184.51366 71.72813L184.51366 71.80625Q184.51366 72.72813 184.15428 73.4625Q183.7949 74.19688 183.13866 74.61875Q182.4824 75.025 181.62303 75.025Q180.34178 75.025 179.52928 74.13438Q178.7324 73.22813 178.7324 71.74375L178.7324 71.66563ZM179.82616 71.80625Q179.82616 72.85313 180.31053 73.49375Q180.81053 74.13438 181.62303 74.13438Q182.45116 74.13438 182.93553 73.49375Q183.4199 72.8375 183.4199 71.66563Q183.4199 70.63438 182.9199 69.99375Q182.43553 69.3375 181.6074 69.3375Q180.81053 69.3375 180.31053 69.97813Q179.82616 70.60313 179.82616 71.80625ZM187.49803 67.025L187.49803 68.55625L188.6699 68.55625L188.6699 69.4L187.49803 69.4L187.49803 73.32188Q187.49803 73.7125 187.65428 73.9Q187.81053 74.0875 188.18553 74.0875Q188.37303 74.0875 188.70116 74.025L188.70116 74.9Q188.27928 75.025 187.87303 75.025Q187.15428 75.025 186.77928 74.5875Q186.40428 74.13438 186.40428 73.32188L186.40428 69.4L185.24803 69.4L185.24803 68.55625L186.40428 68.55625L186.40428 67.025L187.49803 67.025ZM191.49803 67.025L191.49803 68.55625L192.6699 68.55625L192.6699 69.4L191.49803 69.4L191.49803 73.32188Q191.49803 73.7125 191.65428 73.9Q191.81053 74.0875 192.18553 74.0875Q192.37303 74.0875 192.70116 74.025L192.70116 74.9Q192.27928 75.025 191.87303 75.025Q191.15428 75.025 190.77928 74.5875Q190.40428 74.13438 190.40428 73.32188L190.40428 69.4L189.24803 69.4L189.24803 68.55625L190.40428 68.55625L190.40428 67.025L191.49803 67.025ZM197.71678 73.2125Q197.71678 72.775 197.37303 72.54063Q197.0449 72.29063 196.21678 72.11875Q195.40428 71.94688 194.9199 71.69688Q194.43553 71.44688 194.20116 71.11875Q193.9824 70.775 193.9824 70.30625Q193.9824 69.525 194.63866 68.99375Q195.2949 68.44688 196.32616 68.44688Q197.40428 68.44688 198.06053 69.00938Q198.7324 69.55625 198.7324 70.41563L197.65428 70.41563Q197.65428 69.97813 197.26366 69.66563Q196.88866 69.3375 196.32616 69.3375Q195.7324 69.3375 195.38866 69.60313Q195.06053 69.85313 195.06053 70.25938Q195.06053 70.65 195.37303 70.85313Q195.68553 71.05625 196.49803 71.24375Q197.31053 71.41563 197.81053 71.66563Q198.31053 71.91563 198.5449 72.275Q198.7949 72.63438 198.7949 73.13438Q198.7949 73.99375 198.1074 74.50938Q197.43553 75.025 196.3574 75.025Q195.59178 75.025 194.99803 74.75938Q194.4199 74.47813 194.09178 73.99375Q193.76366 73.50938 193.76366 72.94688L194.84178 72.94688Q194.87303 73.49375 195.27928 73.82188Q195.68553 74.13438 196.3574 74.13438Q196.96678 74.13438 197.34178 73.88438Q197.71678 73.63438 197.71678 73.2125ZM203.71678 73.2125Q203.71678 72.775 203.37303 72.54063Q203.0449 72.29063 202.21678 72.11875Q201.40428 71.94688 200.9199 71.69688Q200.43553 71.44688 200.20116 71.11875Q199.9824 70.775 199.9824 70.30625Q199.9824 69.525 200.63866 68.99375Q201.2949 68.44688 202.32616 68.44688Q203.40428 68.44688 204.06053 69.00938Q204.7324 69.55625 204.7324 70.41563L203.65428 70.41563Q203.65428 69.97813 203.26366 69.66563Q202.88866 69.3375 202.32616 69.3375Q201.7324 69.3375 201.38866 69.60313Q201.06053 69.85313 201.06053 70.25938Q201.06053 70.65 201.37303 70.85313Q201.68553 71.05625 202.49803 71.24375Q203.31053 71.41563 203.81053 71.66563Q204.31053 71.91563 204.5449 72.275Q204.7949 72.63438 204.7949 73.13438Q204.7949 73.99375 204.1074 74.50938Q203.43553 75.025 202.3574 75.025Q201.59178 75.025 200.99803 74.75938Q200.4199 74.47813 200.09178 73.99375Q199.76366 73.50938 199.76366 72.94688L200.84178 72.94688Q200.87303 73.49375 201.27928 73.82188Q201.68553 74.13438 202.3574 74.13438Q202.96678 74.13438 203.34178 73.88438Q203.71678 73.63438 203.71678 73.2125ZM207.7949 71.9625L207.1074 72.66563L207.1074 74.9L206.02928 74.9L206.02928 65.9L207.1074 65.9L207.1074 71.3375L207.68553 70.65L209.6699 68.55625L210.9824 68.55625L208.51366 71.2125L211.27928 74.9L209.99803 74.9L207.7949 71.9625ZM211.7324 71.66563Q211.7324 70.74375 212.09178 69.99375Q212.46678 69.24375 213.12303 68.85313Q213.77928 68.44688 214.6074 68.44688Q215.90428 68.44688 216.70116 69.3375Q217.51366 70.22813 217.51366 71.72813L217.51366 71.80625Q217.51366 72.72813 217.15428 73.4625Q216.7949 74.19688 216.13866 74.61875Q215.4824 75.025 214.62303 75.025Q213.34178 75.025 212.52928 74.13438Q211.7324 73.22813 211.7324 71.74375L211.7324 71.66563ZM212.82616 71.80625Q212.82616 72.85313 213.31053 73.49375Q213.81053 74.13438 214.62303 74.13438Q215.45116 74.13438 215.93553 73.49375Q216.4199 72.8375 216.4199 71.66563Q216.4199 70.63438 215.9199 69.99375Q215.43553 69.3375 214.6074 69.3375Q213.81053 69.3375 213.31053 69.97813Q212.82616 70.60313 212.82616 71.80625ZM220.20116 74.9L219.12303 74.9L219.12303 65.9L220.20116 65.9L220.20116 74.9ZM225.93553 74.9Q225.84178 74.7125 225.77928 74.22813Q225.02928 75.025 223.9824 75.025Q223.0449 75.025 222.43553 74.49375Q221.84178 73.9625 221.84178 73.13438Q221.84178 72.15 222.59178 71.60313Q223.34178 71.05625 224.71678 71.05625L225.76366 71.05625L225.76366 70.55625Q225.76366 69.99375 225.4199 69.66563Q225.09178 69.32188 224.4199 69.32188Q223.84178 69.32188 223.45116 69.61875Q223.06053 69.9 223.06053 70.32188L221.96678 70.32188Q221.96678 69.8375 222.2949 69.4Q222.63866 68.9625 223.21678 68.7125Q223.7949 68.44688 224.4824 68.44688Q225.59178 68.44688 226.20116 68.99375Q226.82616 69.54063 226.8574 70.49375L226.8574 73.41563Q226.8574 74.29063 227.07616 74.80625L227.07616 74.9L225.93553 74.9ZM224.13866 74.07188Q224.65428 74.07188 225.1074 73.80625Q225.56053 73.54063 225.76366 73.11875L225.76366 71.82188L224.9199 71.82188Q222.9199 71.82188 222.9199 72.99375Q222.9199 73.49375 223.26366 73.79063Q223.6074 74.07188 224.13866 74.07188ZM230.0449 68.55625L230.07616 69.35313Q230.81053 68.44688 231.9824 68.44688Q233.99803 68.44688 234.01366 70.7125L234.01366 74.9L232.9199 74.9L232.9199 70.69688Q232.9199 70.025 232.6074 69.69688Q232.31053 69.36875 231.65428 69.36875Q231.12303 69.36875 230.71678 69.65Q230.32616 69.93125 230.1074 70.38438L230.1074 74.9L229.02928 74.9L229.02928 68.55625L230.0449 68.55625Z" fill-rule="nonzero"/><path fill="#000000" d="M282.09573 73.775Q281.65823 74.4 280.87698 74.7125Q280.09573 75.025 279.06448 75.025Q278.03323 75.025 277.22073 74.54063Q276.40823 74.04063 275.97073 73.13438Q275.53323 72.22813 275.5176 71.04063L275.5176 70.30625Q275.5176 68.36875 276.40823 67.30625Q277.31448 66.24375 278.93948 66.24375Q280.28323 66.24375 281.09573 66.93125Q281.90823 67.61875 282.09573 68.86875L280.97073 68.86875Q280.6426 67.18125 278.9551 67.18125Q277.81448 67.18125 277.23636 67.97813Q276.65823 68.75938 276.6426 70.275L276.6426 70.9625Q276.6426 72.4 277.29886 73.25938Q277.9551 74.10313 279.0801 74.10313Q279.7051 74.10313 280.17386 73.9625Q280.65823 73.82188 280.97073 73.47813L280.97073 71.57188L279.00198 71.57188L279.00198 70.65L282.09573 70.65L282.09573 73.775ZM284.79886 74.9L283.72073 74.9L283.72073 65.9L284.79886 65.9L284.79886 74.9ZM290.53323 74.9Q290.43948 74.7125 290.37698 74.22813Q289.62698 75.025 288.5801 75.025Q287.6426 75.025 287.03323 74.49375Q286.43948 73.9625 286.43948 73.13438Q286.43948 72.15 287.18948 71.60313Q287.93948 71.05625 289.31448 71.05625L290.36136 71.05625L290.36136 70.55625Q290.36136 69.99375 290.0176 69.66563Q289.68948 69.32188 289.0176 69.32188Q288.43948 69.32188 288.04886 69.61875Q287.65823 69.9 287.65823 70.32188L286.56448 70.32188Q286.56448 69.8375 286.8926 69.4Q287.23636 68.9625 287.81448 68.7125Q288.3926 68.44688 289.0801 68.44688Q290.18948 68.44688 290.79886 68.99375Q291.42386 69.54063 291.4551 70.49375L291.4551 73.41563Q291.4551 74.29063 291.67386 74.80625L291.67386 74.9L290.53323 74.9ZM288.73636 74.07188Q289.25198 74.07188 289.7051 73.80625Q290.15823 73.54063 290.36136 73.11875L290.36136 71.82188L289.5176 71.82188Q287.5176 71.82188 287.5176 72.99375Q287.5176 73.49375 287.86136 73.79063Q288.2051 74.07188 288.73636 74.07188ZM287.3926 66.86875Q287.3926 66.60313 287.54886 66.43125Q287.72073 66.24375 288.03323 66.24375Q288.34573 66.24375 288.50198 66.43125Q288.67386 66.60313 288.67386 66.86875Q288.67386 67.13438 288.50198 67.30625Q288.34573 67.47813 288.03323 67.47813Q287.72073 67.47813 287.54886 67.30625Q287.3926 67.13438 287.3926 66.86875ZM289.90823 66.88438Q289.90823 66.61875 290.06448 66.43125Q290.23636 66.24375 290.54886 66.24375Q290.86136 66.24375 291.0176 66.43125Q291.18948 66.61875 291.18948 66.88438Q291.18948 67.13438 291.0176 67.32188Q290.86136 67.49375 290.54886 67.49375Q290.23636 67.49375 290.06448 67.32188Q289.90823 67.13438 289.90823 66.88438ZM293.36136 71.68125Q293.36136 70.2125 294.04886 69.3375Q294.73636 68.44688 295.86136 68.44688Q296.97073 68.44688 297.62698 69.19688L297.62698 65.9L298.7051 65.9L298.7051 74.9L297.7051 74.9L297.65823 74.2125Q297.00198 75.025 295.84573 75.025Q294.75198 75.025 294.04886 74.11875Q293.36136 73.2125 293.36136 71.75938L293.36136 71.68125ZM294.43948 71.80625Q294.43948 72.88438 294.87698 73.49375Q295.3301 74.10313 296.11136 74.10313Q297.1426 74.10313 297.62698 73.16563L297.62698 70.25938Q297.1426 69.36875 296.12698 69.36875Q295.3301 69.36875 294.87698 69.97813Q294.43948 70.5875 294.43948 71.80625ZM301.73636 68.55625L301.73636 75.63438Q301.73636 77.4625 300.0801 77.4625Q299.72073 77.4625 299.42386 77.35313L299.42386 76.49375Q299.61136 76.54063 299.90823 76.54063Q300.2676 76.54063 300.4551 76.3375Q300.65823 76.15 300.65823 75.65L300.65823 68.55625L301.73636 68.55625ZM300.54886 66.88438Q300.54886 66.61875 300.7051 66.43125Q300.86136 66.24375 301.17386 66.24375Q301.48636 66.24375 301.6426 66.43125Q301.81448 66.61875 301.81448 66.88438Q301.81448 67.13438 301.6426 67.32188Q301.48636 67.49375 301.17386 67.49375Q300.86136 67.49375 300.7051 67.32188Q300.54886 67.13438 300.54886 66.88438ZM306.25198 75.025Q304.9551 75.025 304.1426 74.18125Q303.34573 73.32188 303.34573 71.9L303.34573 71.7125Q303.34573 70.75938 303.7051 70.025Q304.06448 69.275 304.7051 68.86875Q305.36136 68.44688 306.11136 68.44688Q307.34573 68.44688 308.03323 69.25938Q308.72073 70.07188 308.72073 71.5875L308.72073 72.04063L304.42386 72.04063Q304.4551 72.97813 304.97073 73.55625Q305.50198 74.13438 306.31448 74.13438Q306.87698 74.13438 307.2676 73.9Q307.67386 73.66563 307.98636 73.275L308.6426 73.79063Q307.84573 75.025 306.25198 75.025ZM306.11136 69.3375Q305.4551 69.3375 305.00198 69.82188Q304.56448 70.29063 304.47073 71.15L307.6426 71.15L307.6426 71.07188Q307.59573 70.24375 307.18948 69.79063Q306.79886 69.3375 306.11136 69.3375ZM312.68948 69.525Q312.43948 69.49375 312.15823 69.49375Q311.0801 69.49375 310.7051 70.4L310.7051 74.9L309.62698 74.9L309.62698 68.55625L310.67386 68.55625L310.68948 69.29063Q311.22073 68.44688 312.2051 68.44688Q312.5176 68.44688 312.68948 68.525L312.68948 69.525ZM317.53323 74.275Q316.90823 75.025 315.67386 75.025Q314.65823 75.025 314.12698 74.43125Q313.59573 73.8375 313.59573 72.68125L313.59573 68.55625L314.67386 68.55625L314.67386 72.65Q314.67386 74.10313 315.84573 74.10313Q317.09573 74.10313 317.50198 73.16563L317.50198 68.55625L318.59573 68.55625L318.59573 74.9L317.56448 74.9L317.53323 74.275ZM324.31448 73.2125Q324.31448 72.775 323.97073 72.54063Q323.6426 72.29063 322.81448 72.11875Q322.00198 71.94688 321.5176 71.69688Q321.03323 71.44688 320.79886 71.11875Q320.5801 70.775 320.5801 70.30625Q320.5801 69.525 321.23636 68.99375Q321.8926 68.44688 322.92386 68.44688Q324.00198 68.44688 324.65823 69.00938Q325.3301 69.55625 325.3301 70.41563L324.25198 70.41563Q324.25198 69.97813 323.86136 69.66563Q323.48636 69.3375 322.92386 69.3375Q322.3301 69.3375 321.98636 69.60313Q321.65823 69.85313 321.65823 70.25938Q321.65823 70.65 321.97073 70.85313Q322.28323 71.05625 323.09573 71.24375Q323.90823 71.41563 324.40823 71.66563Q324.90823 71.91563 325.1426 72.275Q325.3926 72.63438 325.3926 73.13438Q325.3926 73.99375 324.7051 74.50938Q324.03323 75.025 322.9551 75.025Q322.18948 75.025 321.59573 74.75938Q321.0176 74.47813 320.68948 73.99375Q320.36136 73.50938 320.36136 72.94688L321.43948 72.94688Q321.47073 73.49375 321.87698 73.82188Q322.28323 74.13438 322.9551 74.13438Q323.56448 74.13438 323.93948 73.88438Q324.31448 73.63438 324.31448 73.2125ZM329.25198 75.025Q327.9551 75.025 327.1426 74.18125Q326.34573 73.32188 326.34573 71.9L326.34573 71.7125Q326.34573 70.75938 326.7051 70.025Q327.06448 69.275 327.7051 68.86875Q328.36136 68.44688 329.11136 68.44688Q330.34573 68.44688 331.03323 69.25938Q331.72073 70.07188 331.72073 71.5875L331.72073 72.04063L327.42386 72.04063Q327.4551 72.97813 327.97073 73.55625Q328.50198 74.13438 329.31448 74.13438Q329.87698 74.13438 330.2676 73.9Q330.67386 73.66563 330.98636 73.275L331.6426 73.79063Q330.84573 75.025 329.25198 75.025ZM329.11136 69.3375Q328.4551 69.3375 328.00198 69.82188Q327.56448 70.29063 327.47073 71.15L330.6426 71.15L330.6426 71.07188Q330.59573 70.24375 330.18948 69.79063Q329.79886 69.3375 329.11136 69.3375ZM334.09573 67.025L334.09573 68.55625L335.2676 68.55625L335.2676 69.4L334.09573 69.4L334.09573 73.32188Q334.09573 73.7125 334.25198 73.9Q334.40823 74.0875 334.78323 74.0875Q334.97073 74.0875 335.29886 74.025L335.29886 74.9Q334.87698 75.025 334.47073 75.025Q333.75198 75.025 333.37698 74.5875Q333.00198 74.13438 333.00198 73.32188L333.00198 69.4L331.84573 69.4L331.84573 68.55625L333.00198 68.55625L333.00198 67.025L334.09573 67.025Z" fill-rule="nonzero"/><path fill="#000000" d="M391.95905 66.36875L393.09967 66.36875L393.09967 72.41563Q393.09967 73.63438 392.34967 74.3375Q391.6153 75.025 390.39655 75.025Q389.13092 75.025 388.41217 74.36875Q387.70905 73.7125 387.70905 72.54063L388.83405 72.54063Q388.83405 73.275 389.22467 73.69688Q389.63092 74.10313 390.39655 74.10313Q391.09967 74.10313 391.52155 73.66563Q391.95905 73.2125 391.95905 72.43125L391.95905 66.36875ZM394.9278 71.66563Q394.9278 70.74375 395.28717 69.99375Q395.66217 69.24375 396.31842 68.85313Q396.97467 68.44688 397.8028 68.44688Q399.09967 68.44688 399.89655 69.3375Q400.70905 70.22813 400.70905 71.72813L400.70905 71.80625Q400.70905 72.72813 400.34967 73.4625Q399.9903 74.19688 399.33405 74.61875Q398.6778 75.025 397.81842 75.025Q396.53717 75.025 395.72467 74.13438Q394.9278 73.22813 394.9278 71.74375L394.9278 71.66563ZM396.02155 71.80625Q396.02155 72.85313 396.50592 73.49375Q397.00592 74.13438 397.81842 74.13438Q398.64655 74.13438 399.13092 73.49375Q399.6153 72.8375 399.6153 71.66563Q399.6153 70.63438 399.1153 69.99375Q398.63092 69.3375 397.8028 69.3375Q397.00592 69.3375 396.50592 69.97813Q396.02155 70.60313 396.02155 71.80625ZM401.95905 71.68125Q401.95905 70.19688 402.64655 69.32188Q403.33405 68.44688 404.45905 68.44688Q405.6153 68.44688 406.27155 69.25938L406.31842 68.55625L407.31842 68.55625L407.31842 74.74375Q407.31842 75.97813 406.58405 76.68125Q405.84967 77.4 404.63092 77.4Q403.94342 77.4 403.28717 77.10313Q402.63092 76.80625 402.28717 76.30625L402.84967 75.65Q403.53717 76.50938 404.5528 76.50938Q405.33405 76.50938 405.77155 76.05625Q406.22467 75.61875 406.22467 74.80625L406.22467 74.25938Q405.56842 75.025 404.44342 75.025Q403.33405 75.025 402.64655 74.13438Q401.95905 73.22813 401.95905 71.68125ZM403.0528 71.80625Q403.0528 72.86875 403.4903 73.49375Q403.9278 74.10313 404.72467 74.10313Q405.7403 74.10313 406.22467 73.16563L406.22467 70.275Q405.72467 69.36875 404.72467 69.36875Q403.94342 69.36875 403.4903 69.97813Q403.0528 70.5875 403.0528 71.80625ZM408.95905 71.68125Q408.95905 70.19688 409.64655 69.32188Q410.33405 68.44688 411.45905 68.44688Q412.6153 68.44688 413.27155 69.25938L413.31842 68.55625L414.31842 68.55625L414.31842 74.74375Q414.31842 75.97813 413.58405 76.68125Q412.84967 77.4 411.63092 77.4Q410.94342 77.4 410.28717 77.10313Q409.63092 76.80625 409.28717 76.30625L409.84967 75.65Q410.53717 76.50938 411.5528 76.50938Q412.33405 76.50938 412.77155 76.05625Q413.22467 75.61875 413.22467 74.80625L413.22467 74.25938Q412.56842 75.025 411.44342 75.025Q410.33405 75.025 409.64655 74.13438Q408.95905 73.22813 408.95905 71.68125ZM410.0528 71.80625Q410.0528 72.86875 410.4903 73.49375Q410.9278 74.10313 411.72467 74.10313Q412.7403 74.10313 413.22467 73.16563L413.22467 70.275Q412.72467 69.36875 411.72467 69.36875Q410.94342 69.36875 410.4903 69.97813Q410.0528 70.5875 410.0528 71.80625ZM417.39655 74.9L416.31842 74.9L416.31842 68.55625L417.39655 68.55625L417.39655 74.9ZM416.22467 66.88438Q416.22467 66.61875 416.38092 66.43125Q416.5528 66.24375 416.8653 66.24375Q417.1778 66.24375 417.33405 66.43125Q417.50592 66.61875 417.50592 66.88438Q417.50592 67.13438 417.33405 67.32188Q417.1778 67.49375 416.8653 67.49375Q416.5528 67.49375 416.38092 67.32188Q416.22467 67.13438 416.22467 66.88438ZM420.2403 68.55625L420.27155 69.35313Q421.00592 68.44688 422.1778 68.44688Q424.19342 68.44688 424.20905 70.7125L424.20905 74.9L423.1153 74.9L423.1153 70.69688Q423.1153 70.025 422.8028 69.69688Q422.50592 69.36875 421.84967 69.36875Q421.31842 69.36875 420.91217 69.65Q420.52155 69.93125 420.3028 70.38438L420.3028 74.9L419.22467 74.9L419.22467 68.55625L420.2403 68.55625ZM425.95905 71.68125Q425.95905 70.19688 426.64655 69.32188Q427.33405 68.44688 428.45905 68.44688Q429.6153 68.44688 430.27155 69.25938L430.31842 68.55625L431.31842 68.55625L431.31842 74.74375Q431.31842 75.97813 430.58405 76.68125Q429.84967 77.4 428.63092 77.4Q427.94342 77.4 427.28717 77.10313Q426.63092 76.80625 426.28717 76.30625L426.84967 75.65Q427.53717 76.50938 428.5528 76.50938Q429.33405 76.50938 429.77155 76.05625Q430.22467 75.61875 430.22467 74.80625L430.22467 74.25938Q429.56842 75.025 428.44342 75.025Q427.33405 75.025 426.64655 74.13438Q425.95905 73.22813 425.95905 71.68125ZM427.0528 71.80625Q427.0528 72.86875 427.4903 73.49375Q427.9278 74.10313 428.72467 74.10313Q429.7403 74.10313 430.22467 73.16563L430.22467 70.275Q429.72467 69.36875 428.72467 69.36875Q427.94342 69.36875 427.4903 69.97813Q427.0528 70.5875 427.0528 71.80625ZM434.9903 71.9625L434.3028 72.66563L434.3028 74.9L433.22467 74.9L433.22467 65.9L434.3028 65.9L434.3028 71.3375L434.88092 70.65L436.8653 68.55625L438.1778 68.55625L435.70905 71.2125L438.47467 74.9L437.19342 74.9L434.9903 71.9625ZM443.13092 74.275Q442.50592 75.025 441.27155 75.025Q440.25592 75.025 439.72467 74.43125Q439.19342 73.8375 439.19342 72.68125L439.19342 68.55625L440.27155 68.55625L440.27155 72.65Q440.27155 74.10313 441.44342 74.10313Q442.69342 74.10313 443.09967 73.16563L443.09967 68.55625L444.19342 68.55625L444.19342 74.9L443.16217 74.9L443.13092 74.275ZM447.39655 74.9L446.31842 74.9L446.31842 65.9L447.39655 65.9L447.39655 74.9Z" fill-rule="nonzero"/></svg>